<mxfile host="app.diagrams.net" agent="Mozilla/5.0 (Windows NT 10.0; Win64; x64) AppleWebKit/537.36 (KHTML, like Gecko) Chrome/132.0.0.0 Safari/537.36" version="26.0.9">
  <diagram name="第 1 页" id="glDG1TZnKvrOyBxmng6V">
    <mxGraphModel dx="1434" dy="756" grid="1" gridSize="10" guides="1" tooltips="1" connect="1" arrows="1" fold="1" page="1" pageScale="1" pageWidth="827" pageHeight="1169" math="0" shadow="0">
      <root>
        <mxCell id="0" />
        <mxCell id="1" parent="0" />
        <mxCell id="j0l67fP4wYmv48tRVjTl-6" style="edgeStyle=orthogonalEdgeStyle;rounded=0;orthogonalLoop=1;jettySize=auto;html=1;exitX=0.5;exitY=1;exitDx=0;exitDy=0;entryX=0.5;entryY=0;entryDx=0;entryDy=0;fontFamily=微软雅黑;fontSize=12;fontColor=default;" edge="1" parent="1" source="j0l67fP4wYmv48tRVjTl-1" target="j0l67fP4wYmv48tRVjTl-5">
          <mxGeometry relative="1" as="geometry" />
        </mxCell>
        <mxCell id="j0l67fP4wYmv48tRVjTl-1" value="&lt;font style=&quot;font-size: 20px;&quot;&gt;开始&lt;/font&gt;" style="rounded=1;whiteSpace=wrap;html=1;fontFamily=微软雅黑;" vertex="1" parent="1">
          <mxGeometry x="215.3846153846154" y="150.25641025641025" width="93.46153846153845" height="41.02564102564102" as="geometry" />
        </mxCell>
        <mxCell id="j0l67fP4wYmv48tRVjTl-9" value="" style="edgeStyle=orthogonalEdgeStyle;rounded=0;orthogonalLoop=1;jettySize=auto;html=1;fontFamily=微软雅黑;fontSize=12;fontColor=default;entryX=0.5;entryY=0;entryDx=0;entryDy=0;" edge="1" parent="1" source="j0l67fP4wYmv48tRVjTl-5" target="j0l67fP4wYmv48tRVjTl-11">
          <mxGeometry relative="1" as="geometry">
            <mxPoint x="262.11538461538464" y="345.12820512820514" as="targetPoint" />
          </mxGeometry>
        </mxCell>
        <mxCell id="j0l67fP4wYmv48tRVjTl-25" value="" style="edgeStyle=orthogonalEdgeStyle;rounded=0;orthogonalLoop=1;jettySize=auto;html=1;fontFamily=微软雅黑;fontSize=12;fontColor=default;autosize=1;resizable=0;" edge="1" parent="1" source="j0l67fP4wYmv48tRVjTl-5" target="j0l67fP4wYmv48tRVjTl-24">
          <mxGeometry relative="1" as="geometry" />
        </mxCell>
        <mxCell id="j0l67fP4wYmv48tRVjTl-5" value="&lt;font style=&quot;font-size: 18px;&quot;&gt;是否存在&lt;/font&gt;&lt;div&gt;&lt;font style=&quot;font-size: 18px;&quot;&gt;未配对男性&lt;/font&gt;&lt;/div&gt;" style="rhombus;whiteSpace=wrap;html=1;rounded=0;strokeColor=default;align=center;verticalAlign=middle;fontFamily=微软雅黑;fontSize=12;fontColor=default;fillColor=default;" vertex="1" parent="1">
          <mxGeometry x="179.43" y="224.36" width="165.38" height="87.69" as="geometry" />
        </mxCell>
        <mxCell id="j0l67fP4wYmv48tRVjTl-10" value="&lt;font style=&quot;font-size: 20px;&quot;&gt;是&lt;/font&gt;" style="text;html=1;align=center;verticalAlign=middle;resizable=0;points=[];autosize=1;strokeColor=none;fillColor=none;fontFamily=微软雅黑;fontSize=12;fontColor=default;" vertex="1" parent="1">
          <mxGeometry x="256.9230769230769" y="293.8461538461538" width="40" height="40" as="geometry" />
        </mxCell>
        <mxCell id="j0l67fP4wYmv48tRVjTl-13" value="" style="edgeStyle=orthogonalEdgeStyle;rounded=0;orthogonalLoop=1;jettySize=auto;html=1;fontFamily=微软雅黑;fontSize=12;fontColor=default;" edge="1" parent="1" source="j0l67fP4wYmv48tRVjTl-11" target="j0l67fP4wYmv48tRVjTl-12">
          <mxGeometry relative="1" as="geometry" />
        </mxCell>
        <mxCell id="j0l67fP4wYmv48tRVjTl-27" style="edgeStyle=orthogonalEdgeStyle;rounded=0;orthogonalLoop=1;jettySize=auto;html=1;entryX=1;entryY=0.5;entryDx=0;entryDy=0;fontFamily=微软雅黑;fontSize=12;fontColor=default;autosize=1;resizable=0;exitX=1;exitY=0.5;exitDx=0;exitDy=0;" edge="1" parent="1" source="j0l67fP4wYmv48tRVjTl-11" target="j0l67fP4wYmv48tRVjTl-5">
          <mxGeometry relative="1" as="geometry" />
        </mxCell>
        <mxCell id="j0l67fP4wYmv48tRVjTl-11" value="&lt;span style=&quot;font-size: 18px;&quot;&gt;该男性是否&lt;/span&gt;&lt;div&gt;&lt;span style=&quot;font-size: 18px;&quot;&gt;成功配对&lt;/span&gt;&lt;/div&gt;" style="rhombus;whiteSpace=wrap;html=1;rounded=0;strokeColor=default;align=center;verticalAlign=middle;fontFamily=微软雅黑;fontSize=12;fontColor=default;fillColor=default;" vertex="1" parent="1">
          <mxGeometry x="174.43" y="336.03" width="175.38" height="84.87" as="geometry" />
        </mxCell>
        <mxCell id="j0l67fP4wYmv48tRVjTl-17" value="" style="edgeStyle=orthogonalEdgeStyle;rounded=0;orthogonalLoop=1;jettySize=auto;html=1;fontFamily=微软雅黑;fontSize=12;fontColor=default;autosize=1;resizable=0;entryX=0;entryY=0.5;entryDx=0;entryDy=0;" edge="1" parent="1" source="j0l67fP4wYmv48tRVjTl-12" target="j0l67fP4wYmv48tRVjTl-16">
          <mxGeometry relative="1" as="geometry">
            <Array as="points">
              <mxPoint x="400" y="489" />
              <mxPoint x="400" y="181" />
            </Array>
          </mxGeometry>
        </mxCell>
        <mxCell id="j0l67fP4wYmv48tRVjTl-12" value="&lt;font style=&quot;font-size: 19px;&quot; face=&quot;微软雅黑&quot;&gt;向当前女性提出“请求”&lt;/font&gt;" style="whiteSpace=wrap;html=1;fontFamily=微软雅黑;rounded=0;" vertex="1" parent="1">
          <mxGeometry x="186.82692307692307" y="457.94871794871796" width="150.57692307692307" height="61.53846153846155" as="geometry" />
        </mxCell>
        <mxCell id="j0l67fP4wYmv48tRVjTl-14" value="&lt;font style=&quot;font-size: 20px;&quot;&gt;否&lt;/font&gt;" style="text;html=1;align=center;verticalAlign=middle;resizable=0;points=[];autosize=1;strokeColor=none;fillColor=none;fontFamily=微软雅黑;fontSize=12;fontColor=default;labelBackgroundColor=none;" vertex="1" parent="1">
          <mxGeometry x="256.9230769230769" y="406.6666666666667" width="40" height="40" as="geometry" />
        </mxCell>
        <mxCell id="j0l67fP4wYmv48tRVjTl-19" value="" style="edgeStyle=orthogonalEdgeStyle;rounded=0;orthogonalLoop=1;jettySize=auto;html=1;fontFamily=微软雅黑;fontSize=12;fontColor=default;autosize=1;resizable=0;" edge="1" parent="1" source="j0l67fP4wYmv48tRVjTl-16" target="j0l67fP4wYmv48tRVjTl-18">
          <mxGeometry relative="1" as="geometry" />
        </mxCell>
        <mxCell id="j0l67fP4wYmv48tRVjTl-21" value="" style="edgeStyle=orthogonalEdgeStyle;rounded=0;orthogonalLoop=1;jettySize=auto;html=1;fontFamily=微软雅黑;fontSize=12;fontColor=default;autosize=1;resizable=0;" edge="1" parent="1" source="j0l67fP4wYmv48tRVjTl-16" target="j0l67fP4wYmv48tRVjTl-20">
          <mxGeometry relative="1" as="geometry" />
        </mxCell>
        <mxCell id="j0l67fP4wYmv48tRVjTl-16" value="该女性是否&lt;div&gt;已配对&lt;/div&gt;" style="rhombus;whiteSpace=wrap;html=1;fontFamily=微软雅黑;rounded=0;fontSize=19;" vertex="1" parent="1">
          <mxGeometry x="415.19" y="136.03" width="158.08" height="90" as="geometry" />
        </mxCell>
        <mxCell id="j0l67fP4wYmv48tRVjTl-38" value="" style="edgeStyle=orthogonalEdgeStyle;rounded=0;orthogonalLoop=1;jettySize=auto;html=1;fontFamily=微软雅黑;fontSize=12;fontColor=default;autosize=1;resizable=0;" edge="1" parent="1" source="j0l67fP4wYmv48tRVjTl-18" target="j0l67fP4wYmv48tRVjTl-37">
          <mxGeometry relative="1" as="geometry" />
        </mxCell>
        <mxCell id="j0l67fP4wYmv48tRVjTl-18" value="“接受”请求" style="whiteSpace=wrap;html=1;fontSize=19;fontFamily=微软雅黑;rounded=0;" vertex="1" parent="1">
          <mxGeometry x="431.9230769230769" y="350.2605128205128" width="124.61538461538461" height="61.53846153846155" as="geometry" />
        </mxCell>
        <mxCell id="j0l67fP4wYmv48tRVjTl-30" value="" style="edgeStyle=orthogonalEdgeStyle;rounded=0;orthogonalLoop=1;jettySize=auto;html=1;fontFamily=微软雅黑;fontSize=12;fontColor=default;autosize=1;resizable=0;" edge="1" parent="1" source="j0l67fP4wYmv48tRVjTl-20" target="j0l67fP4wYmv48tRVjTl-29">
          <mxGeometry relative="1" as="geometry" />
        </mxCell>
        <mxCell id="j0l67fP4wYmv48tRVjTl-20" value="&lt;span&gt;&lt;font face=&quot;微软雅黑&quot;&gt;比较配对男性和该男性的偏好值&lt;/font&gt;&lt;/span&gt;" style="whiteSpace=wrap;html=1;fontSize=20;fontFamily=微软雅黑;rounded=0;" vertex="1" parent="1">
          <mxGeometry x="629.2307692307692" y="150.25641025641025" width="155.76923076923075" height="61.53846153846155" as="geometry" />
        </mxCell>
        <mxCell id="j0l67fP4wYmv48tRVjTl-22" value="&lt;font style=&quot;font-size: 20px;&quot;&gt;是&lt;/font&gt;" style="text;html=1;align=center;verticalAlign=middle;resizable=0;points=[];autosize=1;strokeColor=none;fillColor=none;fontFamily=微软雅黑;fontSize=12;fontColor=default;" vertex="1" parent="1">
          <mxGeometry x="566.9230769230769" y="140" width="40" height="40" as="geometry" />
        </mxCell>
        <mxCell id="j0l67fP4wYmv48tRVjTl-23" value="&lt;font style=&quot;font-size: 20px;&quot;&gt;否&lt;/font&gt;" style="text;html=1;align=center;verticalAlign=middle;resizable=0;points=[];autosize=1;strokeColor=none;fillColor=none;fontFamily=微软雅黑;fontSize=12;fontColor=default;" vertex="1" parent="1">
          <mxGeometry x="483.8461538461538" y="264.8748717948718" width="40" height="40" as="geometry" />
        </mxCell>
        <mxCell id="j0l67fP4wYmv48tRVjTl-24" value="&lt;font style=&quot;font-size: 19px;&quot;&gt;结束&lt;/font&gt;" style="whiteSpace=wrap;html=1;fontFamily=微软雅黑;rounded=1;" vertex="1" parent="1">
          <mxGeometry x="70" y="250.25641025641028" width="77.88461538461537" height="35.8974358974359" as="geometry" />
        </mxCell>
        <mxCell id="j0l67fP4wYmv48tRVjTl-26" value="&lt;font style=&quot;font-size: 20px;&quot;&gt;否&lt;/font&gt;" style="text;html=1;align=center;verticalAlign=middle;resizable=0;points=[];autosize=1;strokeColor=none;fillColor=none;fontFamily=微软雅黑;fontSize=12;fontColor=default;labelBackgroundColor=none;" vertex="1" parent="1">
          <mxGeometry x="153.07692307692307" y="232.30769230769232" width="40" height="40" as="geometry" />
        </mxCell>
        <mxCell id="j0l67fP4wYmv48tRVjTl-28" value="&lt;font style=&quot;font-size: 20px;&quot;&gt;是&lt;/font&gt;" style="text;html=1;align=center;verticalAlign=middle;resizable=0;points=[];autosize=1;strokeColor=none;fillColor=none;fontFamily=微软雅黑;fontSize=12;fontColor=default;" vertex="1" parent="1">
          <mxGeometry x="319.2307692307692" y="293.8461538461538" width="40" height="40" as="geometry" />
        </mxCell>
        <mxCell id="j0l67fP4wYmv48tRVjTl-34" value="" style="edgeStyle=orthogonalEdgeStyle;rounded=0;orthogonalLoop=1;jettySize=auto;html=1;fontFamily=微软雅黑;fontSize=12;fontColor=default;autosize=1;resizable=0;" edge="1" parent="1" source="j0l67fP4wYmv48tRVjTl-29" target="j0l67fP4wYmv48tRVjTl-33">
          <mxGeometry relative="1" as="geometry" />
        </mxCell>
        <mxCell id="j0l67fP4wYmv48tRVjTl-41" value="" style="edgeStyle=orthogonalEdgeStyle;rounded=0;orthogonalLoop=1;jettySize=auto;html=1;fontFamily=微软雅黑;fontSize=12;fontColor=default;autosize=1;resizable=0;entryX=0.5;entryY=0;entryDx=0;entryDy=0;exitX=1;exitY=0.5;exitDx=0;exitDy=0;" edge="1" parent="1" source="j0l67fP4wYmv48tRVjTl-29" target="j0l67fP4wYmv48tRVjTl-40">
          <mxGeometry relative="1" as="geometry">
            <Array as="points">
              <mxPoint x="858" y="289" />
            </Array>
          </mxGeometry>
        </mxCell>
        <mxCell id="j0l67fP4wYmv48tRVjTl-29" value="&lt;font&gt;该男性&lt;/font&gt;&lt;font style=&quot;background-color: transparent; color: light-dark(rgb(0, 0, 0), rgb(255, 255, 255));&quot;&gt;的&lt;/font&gt;&lt;div&gt;&lt;font style=&quot;background-color: transparent; color: light-dark(rgb(0, 0, 0), rgb(255, 255, 255));&quot;&gt;偏好值&lt;/font&gt;&lt;span style=&quot;background-color: transparent; color: light-dark(rgb(0, 0, 0), rgb(255, 255, 255));&quot;&gt;更大&lt;/span&gt;&lt;/div&gt;" style="rhombus;whiteSpace=wrap;html=1;fontSize=20;fontFamily=微软雅黑;rounded=0;" vertex="1" parent="1">
          <mxGeometry x="610.72" y="250.26" width="192.79" height="77.18" as="geometry" />
        </mxCell>
        <mxCell id="j0l67fP4wYmv48tRVjTl-32" value="&lt;font style=&quot;font-size: 20px;&quot;&gt;是&lt;/font&gt;" style="text;html=1;align=center;verticalAlign=middle;resizable=0;points=[];autosize=1;strokeColor=none;fillColor=none;fontFamily=微软雅黑;fontSize=12;fontColor=default;" vertex="1" parent="1">
          <mxGeometry x="701.9230769230769" y="312.0507692307692" width="40" height="40" as="geometry" />
        </mxCell>
        <mxCell id="j0l67fP4wYmv48tRVjTl-36" value="" style="edgeStyle=orthogonalEdgeStyle;rounded=0;orthogonalLoop=1;jettySize=auto;html=1;fontFamily=微软雅黑;fontSize=12;fontColor=default;autosize=1;resizable=0;" edge="1" parent="1" source="j0l67fP4wYmv48tRVjTl-33" target="j0l67fP4wYmv48tRVjTl-35">
          <mxGeometry relative="1" as="geometry" />
        </mxCell>
        <mxCell id="j0l67fP4wYmv48tRVjTl-33" value="“接受”请求" style="whiteSpace=wrap;html=1;fontSize=19;fontFamily=微软雅黑;rounded=0;" vertex="1" parent="1">
          <mxGeometry x="644.8076923076923" y="350.2564102564103" width="124.61538461538461" height="56.41025641025641" as="geometry" />
        </mxCell>
        <mxCell id="j0l67fP4wYmv48tRVjTl-39" style="edgeStyle=orthogonalEdgeStyle;rounded=0;orthogonalLoop=1;jettySize=auto;html=1;fontFamily=微软雅黑;fontSize=12;fontColor=default;autosize=1;resizable=0;" edge="1" parent="1" source="j0l67fP4wYmv48tRVjTl-35" target="j0l67fP4wYmv48tRVjTl-37">
          <mxGeometry relative="1" as="geometry" />
        </mxCell>
        <mxCell id="j0l67fP4wYmv48tRVjTl-35" value="原配对男性标记未配对" style="whiteSpace=wrap;html=1;fontSize=19;fontFamily=微软雅黑;rounded=0;" vertex="1" parent="1">
          <mxGeometry x="644.8076923076923" y="437.43589743589746" width="124.61538461538461" height="61.53846153846155" as="geometry" />
        </mxCell>
        <mxCell id="j0l67fP4wYmv48tRVjTl-51" style="edgeStyle=orthogonalEdgeStyle;rounded=0;orthogonalLoop=1;jettySize=auto;html=1;exitX=0.5;exitY=1;exitDx=0;exitDy=0;entryX=0;entryY=0.5;entryDx=0;entryDy=0;fontFamily=微软雅黑;fontSize=12;fontColor=default;autosize=1;resizable=0;" edge="1" parent="1" source="j0l67fP4wYmv48tRVjTl-37" target="j0l67fP4wYmv48tRVjTl-11">
          <mxGeometry relative="1" as="geometry">
            <Array as="points">
              <mxPoint x="494" y="560" />
              <mxPoint x="110" y="560" />
              <mxPoint x="110" y="379" />
            </Array>
          </mxGeometry>
        </mxCell>
        <mxCell id="j0l67fP4wYmv48tRVjTl-37" value="配对成功" style="whiteSpace=wrap;html=1;fontSize=19;fontFamily=微软雅黑;rounded=0;" vertex="1" parent="1">
          <mxGeometry x="431.9230769230769" y="437.43589743589746" width="124.61538461538461" height="61.53846153846155" as="geometry" />
        </mxCell>
        <mxCell id="j0l67fP4wYmv48tRVjTl-43" value="" style="edgeStyle=orthogonalEdgeStyle;rounded=0;orthogonalLoop=1;jettySize=auto;html=1;fontFamily=微软雅黑;fontSize=12;fontColor=default;autosize=1;resizable=0;" edge="1" parent="1" source="j0l67fP4wYmv48tRVjTl-40" target="j0l67fP4wYmv48tRVjTl-42">
          <mxGeometry relative="1" as="geometry" />
        </mxCell>
        <mxCell id="j0l67fP4wYmv48tRVjTl-40" value="“拒绝”请求" style="whiteSpace=wrap;html=1;fontSize=19;fontFamily=微软雅黑;rounded=0;" vertex="1" parent="1">
          <mxGeometry x="795.3846153846154" y="298.974358974359" width="124.61538461538461" height="61.53846153846155" as="geometry" />
        </mxCell>
        <mxCell id="j0l67fP4wYmv48tRVjTl-48" value="" style="edgeStyle=orthogonalEdgeStyle;rounded=0;orthogonalLoop=1;jettySize=auto;html=1;fontFamily=微软雅黑;fontSize=12;fontColor=default;autosize=1;resizable=0;" edge="1" parent="1" source="j0l67fP4wYmv48tRVjTl-42" target="j0l67fP4wYmv48tRVjTl-47">
          <mxGeometry relative="1" as="geometry" />
        </mxCell>
        <mxCell id="j0l67fP4wYmv48tRVjTl-42" value="配对失败" style="whiteSpace=wrap;html=1;fontSize=19;fontFamily=微软雅黑;rounded=0;" vertex="1" parent="1">
          <mxGeometry x="795.3846153846154" y="381.02564102564105" width="124.61538461538461" height="56.41025641025641" as="geometry" />
        </mxCell>
        <mxCell id="j0l67fP4wYmv48tRVjTl-44" value="&lt;font style=&quot;font-size: 20px;&quot;&gt;否&lt;/font&gt;" style="text;html=1;align=center;verticalAlign=middle;resizable=0;points=[];autosize=1;strokeColor=none;fillColor=none;fontFamily=微软雅黑;fontSize=12;fontColor=default;" vertex="1" parent="1">
          <mxGeometry x="795.3846153846154" y="245.12820512820514" width="40" height="40" as="geometry" />
        </mxCell>
        <mxCell id="j0l67fP4wYmv48tRVjTl-52" style="edgeStyle=orthogonalEdgeStyle;rounded=0;orthogonalLoop=1;jettySize=auto;html=1;exitX=0.5;exitY=1;exitDx=0;exitDy=0;entryX=0;entryY=0.5;entryDx=0;entryDy=0;fontFamily=微软雅黑;fontSize=12;fontColor=default;autosize=1;resizable=0;" edge="1" parent="1" source="j0l67fP4wYmv48tRVjTl-47" target="j0l67fP4wYmv48tRVjTl-11">
          <mxGeometry relative="1" as="geometry">
            <Array as="points">
              <mxPoint x="858" y="560" />
              <mxPoint x="110" y="560" />
              <mxPoint x="110" y="379" />
            </Array>
          </mxGeometry>
        </mxCell>
        <mxCell id="j0l67fP4wYmv48tRVjTl-47" value="下一位女性" style="whiteSpace=wrap;html=1;fontSize=19;fontFamily=微软雅黑;rounded=0;" vertex="1" parent="1">
          <mxGeometry x="795.3846153846154" y="468.2051282051282" width="124.61538461538461" height="61.53846153846155" as="geometry" />
        </mxCell>
      </root>
    </mxGraphModel>
  </diagram>
</mxfile>
